<svg xmlns="http://www.w3.org/2000/svg" viewBox="0 0 32 32" role="img" aria-label="Pantry Wars">
  <defs>
    <linearGradient id="bg" x1="0" y1="0" x2="32" y2="32" gradientUnits="userSpaceOnUse">
      <stop offset="0" stop-color="#1e293b"/>
      <stop offset="1" stop-color="#0f172a"/>
    </linearGradient>
  </defs>
  <rect width="32" height="32" rx="7" fill="url(#bg)"/>
  <!-- chef hat -->
  <path fill="#f8fafc" d="M16 6c-4.2 0-7.5 2.8-7.5 6.4 0 1.2.4 2.3 1 3.2h13c.6-.9 1-2 1-3.2C23.5 8.8 20.2 6 16 6z"/>
  <path fill="#e2e8f0" d="M8.5 15.6h15v1.2c0 .8-.7 1.4-1.5 1.4h-12c-.8 0-1.5-.6-1.5-1.4v-1.2z"/>
  <!-- toque band -->
  <rect x="7" y="17.2" width="18" height="2.2" rx="0.5" fill="#f59e0b"/>
  <!-- crossed utensils hint -->
  <path fill="#fbbf24" d="M11 22.5h2.2v5H11v-5zm7.8 0H21v5h-2.2v-5z" opacity=".9"/>
  <path fill="#f59e0b" d="M15.2 21.5l1.6 1.6-1.6 1.6-1.6-1.6 1.6-1.6z" opacity=".85"/>
</svg>
